<mxfile host="app.diagrams.net" modified="2022-05-18T01:23:25.177Z" agent="5.0 (Windows NT 10.0; WOW64) AppleWebKit/537.36 (KHTML, like Gecko) Chrome/86.0.4240.198 Safari/537.36" etag="hYryWKtA6iypZWx29lgM" version="18.0.6" type="github">
  <diagram id="Bu6AkYAGtErOXVTplbam" name="第 1 页">
    <mxGraphModel dx="1422" dy="761" grid="1" gridSize="10" guides="1" tooltips="1" connect="1" arrows="1" fold="1" page="1" pageScale="1" pageWidth="827" pageHeight="1169" math="0" shadow="0">
      <root>
        <mxCell id="0" />
        <mxCell id="1" parent="0" />
        <mxCell id="o6ZxrLcceU4h4nQC1VOa-1" value="&lt;h1&gt;通过负载均衡实现金丝雀方案&lt;/h1&gt;" style="text;html=1;strokeColor=none;fillColor=none;spacing=5;spacingTop=-20;whiteSpace=wrap;overflow=hidden;rounded=0;" vertex="1" parent="1">
          <mxGeometry x="230" y="90" width="330" height="40" as="geometry" />
        </mxCell>
        <mxCell id="o6ZxrLcceU4h4nQC1VOa-8" style="edgeStyle=orthogonalEdgeStyle;rounded=0;orthogonalLoop=1;jettySize=auto;html=1;exitX=0.5;exitY=1;exitDx=0;exitDy=0;entryX=0.4;entryY=0.1;entryDx=0;entryDy=0;entryPerimeter=0;curved=1;" edge="1" parent="1" source="o6ZxrLcceU4h4nQC1VOa-2" target="o6ZxrLcceU4h4nQC1VOa-7">
          <mxGeometry relative="1" as="geometry" />
        </mxCell>
        <mxCell id="o6ZxrLcceU4h4nQC1VOa-2" value="client-1" style="rounded=0;whiteSpace=wrap;html=1;" vertex="1" parent="1">
          <mxGeometry x="110" y="240" width="120" height="60" as="geometry" />
        </mxCell>
        <mxCell id="o6ZxrLcceU4h4nQC1VOa-11" style="edgeStyle=orthogonalEdgeStyle;curved=1;rounded=0;orthogonalLoop=1;jettySize=auto;html=1;entryX=0.4;entryY=0.1;entryDx=0;entryDy=0;entryPerimeter=0;" edge="1" parent="1" source="o6ZxrLcceU4h4nQC1VOa-3" target="o6ZxrLcceU4h4nQC1VOa-7">
          <mxGeometry relative="1" as="geometry" />
        </mxCell>
        <mxCell id="o6ZxrLcceU4h4nQC1VOa-3" value="client-2" style="rounded=0;whiteSpace=wrap;html=1;" vertex="1" parent="1">
          <mxGeometry x="260" y="240" width="120" height="60" as="geometry" />
        </mxCell>
        <mxCell id="o6ZxrLcceU4h4nQC1VOa-12" style="edgeStyle=orthogonalEdgeStyle;curved=1;rounded=0;orthogonalLoop=1;jettySize=auto;html=1;exitX=0.5;exitY=1;exitDx=0;exitDy=0;entryX=0.4;entryY=0.1;entryDx=0;entryDy=0;entryPerimeter=0;" edge="1" parent="1" source="o6ZxrLcceU4h4nQC1VOa-4" target="o6ZxrLcceU4h4nQC1VOa-7">
          <mxGeometry relative="1" as="geometry" />
        </mxCell>
        <mxCell id="o6ZxrLcceU4h4nQC1VOa-4" value="client-3" style="rounded=0;whiteSpace=wrap;html=1;" vertex="1" parent="1">
          <mxGeometry x="420" y="240" width="120" height="60" as="geometry" />
        </mxCell>
        <mxCell id="o6ZxrLcceU4h4nQC1VOa-13" style="edgeStyle=orthogonalEdgeStyle;curved=1;rounded=0;orthogonalLoop=1;jettySize=auto;html=1;exitX=0.5;exitY=1;exitDx=0;exitDy=0;entryX=0.4;entryY=0.1;entryDx=0;entryDy=0;entryPerimeter=0;" edge="1" parent="1" source="o6ZxrLcceU4h4nQC1VOa-6" target="o6ZxrLcceU4h4nQC1VOa-7">
          <mxGeometry relative="1" as="geometry" />
        </mxCell>
        <mxCell id="o6ZxrLcceU4h4nQC1VOa-6" value="client-n" style="rounded=0;whiteSpace=wrap;html=1;" vertex="1" parent="1">
          <mxGeometry x="570" y="240" width="120" height="60" as="geometry" />
        </mxCell>
        <mxCell id="o6ZxrLcceU4h4nQC1VOa-17" style="edgeStyle=orthogonalEdgeStyle;curved=1;rounded=0;orthogonalLoop=1;jettySize=auto;html=1;entryX=0.5;entryY=0;entryDx=0;entryDy=0;" edge="1" parent="1" source="o6ZxrLcceU4h4nQC1VOa-7" target="o6ZxrLcceU4h4nQC1VOa-16">
          <mxGeometry relative="1" as="geometry" />
        </mxCell>
        <mxCell id="o6ZxrLcceU4h4nQC1VOa-7" value="公网" style="ellipse;shape=cloud;whiteSpace=wrap;html=1;" vertex="1" parent="1">
          <mxGeometry x="335" y="410" width="120" height="80" as="geometry" />
        </mxCell>
        <mxCell id="o6ZxrLcceU4h4nQC1VOa-14" value="" style="rounded=0;whiteSpace=wrap;html=1;" vertex="1" parent="1">
          <mxGeometry x="74" y="590" width="680" height="465" as="geometry" />
        </mxCell>
        <mxCell id="o6ZxrLcceU4h4nQC1VOa-15" value="VPC网络" style="text;html=1;strokeColor=none;fillColor=none;align=center;verticalAlign=middle;whiteSpace=wrap;rounded=0;" vertex="1" parent="1">
          <mxGeometry x="74" y="590" width="60" height="30" as="geometry" />
        </mxCell>
        <mxCell id="o6ZxrLcceU4h4nQC1VOa-16" value="SLB&lt;br&gt;&lt;span style=&quot;color: rgb(51, 51, 51); font-family: Arial, sans-serif; font-size: 13px; text-align: start; background-color: rgb(252, 252, 252);&quot;&gt;服务器负载均衡&lt;/span&gt;&lt;br&gt;" style="rhombus;whiteSpace=wrap;html=1;" vertex="1" parent="1">
          <mxGeometry x="337.5" y="550" width="115" height="80" as="geometry" />
        </mxCell>
        <mxCell id="o6ZxrLcceU4h4nQC1VOa-18" value="4层或7层流量分发，且业务无关，不支持特定用户的定向流量分发" style="text;html=1;strokeColor=none;fillColor=none;align=center;verticalAlign=middle;whiteSpace=wrap;rounded=0;" vertex="1" parent="1">
          <mxGeometry x="430" y="550" width="390" height="30" as="geometry" />
        </mxCell>
        <mxCell id="o6ZxrLcceU4h4nQC1VOa-19" value="api-gateway&lt;br&gt;gray" style="whiteSpace=wrap;html=1;aspect=fixed;" vertex="1" parent="1">
          <mxGeometry x="150" y="700" width="80" height="80" as="geometry" />
        </mxCell>
        <mxCell id="o6ZxrLcceU4h4nQC1VOa-20" value="api-gateway&lt;br&gt;prod" style="whiteSpace=wrap;html=1;aspect=fixed;" vertex="1" parent="1">
          <mxGeometry x="310" y="700" width="80" height="80" as="geometry" />
        </mxCell>
      </root>
    </mxGraphModel>
  </diagram>
</mxfile>
